<svg id="Layer_1" data-name="Layer 1" xmlns="http://www.w3.org/2000/svg" viewBox="0 0 176.68 114"><defs><style>.cls-1{fill:none;stroke:#67308f;stroke-miterlimit:10;stroke-width:4px;}.cls-2{font-size:15.26px;fill:#010101;font-family:Axis, Axis;font-weight:700;}.cls-3{letter-spacing:-0.07em;}.cls-4{letter-spacing:-0.06em;}.cls-5{letter-spacing:-0.1em;}.cls-6{letter-spacing:-0.04em;}.cls-7{letter-spacing:0em;}.cls-8{letter-spacing:-0.08em;}</style></defs><title>Artboard 1</title><circle class="cls-1" cx="88.59" cy="45" r="39.43"/><path class="cls-1" d="M79.14,67.9C72.85,67.9,68,66.25,64.78,63c-2.92-3-4.32-7-4.17-12V26.87h7V51.15c-.1,3.09.6,5.35,2.15,6.91,2.48,2.5,6.9,2.92,10.17,2.84h8.36v7H79.14Z"/><line class="cls-1" x1="88.28" y1="45.34" x2="112.44" y2="24.24"/><line class="cls-1" x1="112.44" y1="65.76" x2="88.28" y2="44.66"/><line class="cls-1" x1="88.28" y1="5.25" x2="88.28" y2="84.11"/><text class="cls-2" transform="translate(4.82 109.08)"><tspan class="cls-3">L</tspan><tspan x="9.71" y="0">O</tspan><tspan class="cls-4" x="22.01" y="0">G</tspan><tspan class="cls-5" x="32.39" y="0">A</tspan><tspan x="43.99" y="0">N K</tspan><tspan class="cls-6" x="75.28" y="0">R</tspan><tspan class="cls-7" x="85.71" y="0">UMBHA</tspan><tspan class="cls-8" x="144.17" y="0">A</tspan><tspan x="156.02" y="0">R</tspan></text></svg>